PathFileType  4	(X/Y/Z) C:\Users\antoi\Documents\MyRepositories\mobilecap\ResultsAnalysis
DataRate	CameraRate	NumFrames	NumMarkers	Units	OrigDataRate	OrigDataStartFrame	OrigNumFrames
100.0	100.0	4	51	mm	100.0	63	249
Frame#	Time	r_knee			r_shank_antsup			r_ankle			r_calc			r_5meta			r_toe			L_knee			L_shank_antsup			L_ankle			L_calc			L_5meta			L_toe			r_sh2			r_sh3			r_sh4			L_sh2			L_sh3			r_thigh1			r_thigh2			r_thigh3			r_thigh4			r_thigh5			L_thigh1			L_thigh2			L_thigh3			L_thigh4			r.ASIS			r.PSIS			L.ASIS			L.PSIS			C7			R_Shoulder			L_Shoulder			R_Sternum			L_Sternum			R_humerus			R_elbow_med			R_elbow_lat			R_forearm			R_wrist_radius			R_wrist_ulna			L_humerus			L_elbow_med			L_elbow_lat			L_forearm			L_wrist_radius			L_wrist_ulna			R_HJC			L_HJC			R_HJC_reg			L_HJC_reg			
		X1	Y1	Z1	X2	Y2	Z2	X3	Y3	Z3	X4	Y4	Z4	X5	Y5	Z5	X6	Y6	Z6	X7	Y7	Z7	X8	Y8	Z8	X9	Y9	Z9	X10	Y10	Z10	X11	Y11	Z11	X12	Y12	Z12	X13	Y13	Z13	X14	Y14	Z14	X15	Y15	Z15	X16	Y16	Z16	X17	Y17	Z17	X18	Y18	Z18	X19	Y19	Z19	X20	Y20	Z20	X21	Y21	Z21	X22	Y22	Z22	X23	Y23	Z23	X24	Y24	Z24	X25	Y25	Z25	X26	Y26	Z26	X27	Y27	Z27	X28	Y28	Z28	X29	Y29	Z29	X30	Y30	Z30	X31	Y31	Z31	X32	Y32	Z32	X33	Y33	Z33	X34	Y34	Z34	X35	Y35	Z35	X36	Y36	Z36	X37	Y37	Z37	X38	Y38	Z38	X39	Y39	Z39	X40	Y40	Z40	X41	Y41	Z41	X42	Y42	Z42	X43	Y43	Z43	X44	Y44	Z44	X45	Y45	Z45	X46	Y46	Z46	X47	Y47	Z47	X48	Y48	Z48	X49	Y49	Z49	X50	Y50	Z50	X51	Y51	Z51	

63	0.62000000	-964.24498	700.82615	-480.36168	-973.76865	630.41250	-454.20205	-1177.14360	400.21420	-460.87974	-1253.20482	363.27437	-493.11767	-1079.93545	352.57029	-434.50296	-1039.38605	369.28804	-493.33125	-971.39540	704.95613	-726.26330	-963.29163	626.19991	-729.61340	-1171.71956	401.08833	-707.92502	-1246.16319	366.13732	-662.30035	-1083.53847	350.30272	-735.91078	-1034.77043	370.15096	-679.14610	-1039.36050	538.59339	-440.53901	-1035.18249	673.00489	-456.71786	-1109.07725	583.73415	-444.07153	-1030.67966	680.49914	-752.35983	-1096.87661	577.32297	-752.99538	-1039.23830	1003.45700	-456.88161	-981.05426	906.47179	-464.66484	-1003.88775	862.47740	-418.38877	-1111.28177	955.65387	-381.79784	-1059.22061	853.27700	-406.53442	-1054.70005	984.60598	-733.77261	-980.50172	867.88341	-732.53904	-1154.64555	926.62981	-752.82470	-1071.74506	811.10559	-750.43044	-1060.17857	1078.93432	-444.25362	-1225.20726	1169.02911	-507.55196	-1075.71924	1079.13784	-700.18677	-1236.22834	1165.96219	-614.67831	-906.91572	1518.87055	-581.75909	-864.05919	1431.79093	-437.45206	-872.55398	1431.48797	-739.35466	-844.26846	1385.35309	-569.23353	-844.86169	1384.09375	-608.54164	-930.56014	1218.54582	-338.29053	-1010.71730	1123.99795	-370.12004	-973.43306	1143.13921	-306.17320	-902.22379	1041.74746	-324.38514	-850.46625	944.35739	-351.44636	-882.48347	920.27926	-331.48734	-882.32470	1312.88498	-801.06674	-1001.81955	1121.29844	-827.07232	-971.54665	1136.76531	-882.61674	-895.62023	1048.35077	-866.61895	-852.69581	937.05689	-829.41452	-873.75928	918.12225	-855.66224	-1152.01065	1036.21448	-466.46294	-1160.58150	1037.23296	-666.56949	-1149.28079	1033.39515	-470.11003	-1166.59264	1028.57814	-638.37979	
64	0.63000000	-958.96189	697.19293	-481.31819	-969.22853	626.98040	-455.19403	-1176.70296	400.45795	-461.00242	-1253.01517	363.58612	-493.29784	-1079.84847	352.45872	-434.50448	-1039.13371	368.99691	-493.29540	-965.85676	701.77997	-727.30661	-958.68477	622.32216	-729.55203	-1171.25820	401.16240	-707.86155	-1245.97686	366.34114	-662.27877	-1083.36864	350.11952	-735.97478	-1034.39043	369.65861	-679.17315	-1036.30393	536.24329	-441.28879	-1030.08811	670.40419	-457.58216	-1105.61450	582.85084	-444.73194	-1025.08109	677.63716	-752.86774	-1092.94546	575.50904	-753.31954	-1034.25900	999.56520	-456.61989	-976.08057	902.65194	-464.67987	-999.23515	858.47591	-418.31417	-1106.78947	951.39197	-382.31779	-1054.62901	849.36223	-406.96357	-1050.43973	980.87270	-734.65327	-975.68600	864.51512	-733.18892	-1150.31939	922.47868	-752.33784	-1066.90375	807.01017	-749.39656	-1055.47208	1075.36714	-444.57531	-1220.82478	1165.05345	-507.89726	-1070.92194	1075.61072	-700.28526	-1232.12313	1161.76997	-614.73171	-903.97685	1515.90242	-581.39111	-861.25183	1429.18713	-437.80221	-869.53149	1429.33592	-738.60218	-840.74220	1382.38658	-568.94195	-841.00729	1381.14747	-608.14073	-922.47653	1214.97118	-338.99385	-997.29180	1116.66900	-372.17278	-961.70982	1137.25198	-307.88077	-883.83190	1041.05895	-327.61156	-825.57121	948.26839	-357.02406	-855.81378	921.28594	-338.14138	-875.26613	1311.95159	-801.26993	-984.69072	1114.52411	-827.43709	-955.75000	1131.85196	-883.39845	-873.61633	1049.07812	-865.11454	-823.38585	941.33715	-824.81159	-842.16539	921.02522	-851.23001	-1147.16798	1032.38535	-466.67093	-1155.76149	1033.37841	-666.77646	-1144.17694	1029.99988	-470.07460	-1161.95002	1024.83427	-638.13463	
65	0.64000000	-954.14285	693.64462	-482.16098	-964.97828	623.62783	-456.07692	-1176.22956	400.82004	-461.01505	-1252.84361	363.86212	-493.45366	-1079.77240	352.32768	-434.49376	-1038.94313	368.63976	-493.37081	-960.73244	698.25330	-728.01233	-954.27870	618.45697	-729.81081	-1170.69184	401.32131	-708.04520	-1245.76252	366.58980	-662.37568	-1083.27110	349.90431	-735.95331	-1034.10314	369.17450	-679.26069	-1033.52704	533.97019	-442.03069	-1025.29806	667.90549	-458.47121	-1102.29021	581.89304	-445.36391	-1019.71743	674.61428	-753.36109	-1089.10971	573.62213	-753.89845	-1028.87824	996.25255	-455.39886	-970.87308	898.92570	-464.65902	-994.49175	854.62983	-418.55354	-1102.05111	947.69919	-382.80909	-1049.97553	845.60895	-407.62686	-1045.64587	977.08916	-735.80658	-970.77996	860.87758	-734.30481	-1145.73980	918.61568	-751.89028	-1062.23586	802.99419	-748.70777	-1050.21500	1072.37977	-444.83314	-1215.96082	1161.46713	-508.22312	-1065.80262	1072.25756	-700.81873	-1227.44568	1157.93905	-614.94429	-901.45171	1513.99037	-581.06286	-858.57521	1427.67747	-437.90924	-866.65230	1428.61588	-737.95736	-837.14520	1380.71517	-568.72134	-837.07722	1379.50724	-608.05862	-913.85821	1212.82835	-339.41749	-983.97853	1110.73035	-372.87174	-949.01255	1133.14095	-308.71403	-864.37512	1043.12144	-330.54190	-799.38907	956.02760	-362.57881	-827.47353	926.17932	-344.34090	-867.87526	1312.57863	-801.36328	-966.35981	1109.50627	-827.79764	-938.89437	1128.80162	-884.42670	-850.68258	1052.79730	-863.79790	-793.16059	949.50929	-820.23246	-808.86237	927.87105	-846.86032	-1141.76856	1029.05483	-466.90058	-1150.55710	1029.78291	-666.99850	-1138.72105	1026.75338	-470.12120	-1156.82181	1021.19291	-638.32268	
66	0.65000000	-949.55970	690.07889	-482.97302	-961.22561	620.46751	-456.59190	-1175.77149	401.24352	-460.99005	-1252.69660	364.09151	-493.59877	-1079.69259	352.20946	-434.49312	-1038.76959	368.27415	-493.44694	-955.95393	694.55113	-728.62116	-950.09901	614.74690	-730.45142	-1170.05510	401.56442	-708.36770	-1245.51585	366.93720	-662.49411	-1083.20963	349.72756	-736.05511	-1033.85768	368.76854	-679.35649	-1031.11200	531.86561	-442.64517	-1020.80932	665.75204	-459.31194	-1099.05925	580.84568	-446.05726	-1014.68497	671.61121	-754.05845	-1085.36122	571.76435	-754.58837	-1023.01733	993.40710	-453.89672	-965.48518	895.33927	-464.42665	-989.60061	850.98645	-419.10048	-1096.89778	944.53363	-383.29750	-1045.19288	842.20523	-408.29661	-1040.20945	973.40004	-736.96801	-965.82565	857.11793	-735.89834	-1140.84106	915.30372	-751.54515	-1057.69915	799.37912	-748.82772	-1044.29880	1070.01474	-445.17186	-1210.62183	1158.35223	-508.47881	-1060.25204	1069.39088	-702.28419	-1222.18119	1154.62658	-615.24557	-899.13339	1513.16937	-580.75696	-855.70006	1427.33290	-438.10803	-863.84043	1429.31809	-737.41653	-833.39748	1380.23523	-568.60912	-833.03316	1379.15430	-608.34699	-904.30156	1212.26620	-339.49721	-970.14631	1106.59796	-372.28936	-935.19467	1131.08126	-308.48375	-844.02568	1048.19574	-333.22249	-772.40375	967.79607	-367.86690	-797.75466	935.26377	-349.86633	-860.07381	1314.75435	-801.30852	-946.92318	1106.81125	-828.05206	-920.91307	1128.03297	-886.08177	-826.97612	1059.71260	-862.49608	-762.15312	962.35772	-816.14726	-774.41751	939.19560	-843.14525	-1135.65330	1026.22981	-467.40352	-1144.92279	1026.72850	-667.48061	-1132.85855	1023.64576	-470.49073	-1151.14832	1017.75129	-639.42241	
